<svg width="16" height="11" viewBox="0 0 16 11" fill="none" xmlns="http://www.w3.org/2000/svg">
<path d="M13.5441 0.91414C12.5192 0.490202 11.4303 0.181884 10.2858 0.000746961C10.2644 0.000746961 10.2431 0.0007469 10.2345 0.0238708C10.0936 0.251255 9.9356 0.544157 9.82884 0.775396C8.59041 0.609675 7.37333 0.609675 6.16907 0.775396C6.05804 0.536449 5.90003 0.247401 5.74202 0.0238708C5.72921 0.00845486 5.71213 -0.00310702 5.69078 0.000746961C4.70858 0.17803 3.45307 0.501764 2.44524 0.91414C2.4367 0.91414 2.42816 0.921847 2.42389 0.929555C0.331372 3.74296 -0.223785 6.44074 0.0751456 9.13853C0.0751456 9.15009 0.0836865 9.1655 0.0964978 9.17707C1.46304 10.0866 2.78688 10.6416 4.09363 11C4.11498 11 4.13634 11 4.14915 10.9846C4.45662 10.6069 4.72993 10.2061 4.96907 9.78214C4.98188 9.75902 4.96907 9.72819 4.93918 9.72048C4.51214 9.56632 4.08509 9.38904 3.68794 9.18092C3.65805 9.16551 3.65378 9.12311 3.68794 9.10384C3.77335 9.04603 3.85876 8.98822 3.93563 8.93041C3.94844 8.91885 3.96979 8.91885 3.98687 8.9227C6.60892 10.0018 9.45304 10.0018 12.0153 8.9227C12.0324 8.915 12.0537 8.91885 12.0666 8.92656C12.1477 8.98822 12.2288 9.04603 12.3142 9.10384C12.3441 9.12311 12.3399 9.16551 12.3142 9.18092C11.9171 9.39289 11.5029 9.56632 11.063 9.72048C11.0331 9.73204 11.0203 9.75902 11.0374 9.786C11.2765 10.2099 11.5541 10.6069 11.8488 10.9807C11.8616 10.9961 11.8829 11.0039 11.9043 10.9961C13.211 10.63 14.5391 10.0789 15.9099 9.17321C15.9228 9.1655 15.9313 9.15394 15.9313 9.13467C16.2644 6.01681 15.3719 3.31517 13.5655 0.925702C13.5655 0.917994 13.5527 0.910285 13.5441 0.910285V0.91414ZM5.34487 7.50444C4.53349 7.50444 3.89292 6.84926 3.89292 6.03993C3.89292 5.23059 4.53349 4.57542 5.34487 4.57542C6.15626 4.57542 6.79682 5.23059 6.79682 6.03993C6.79682 6.84926 6.15626 7.50444 5.34487 7.50444ZM10.6829 7.50444C9.87154 7.50444 9.23098 6.84926 9.23098 6.03993C9.23098 5.23059 9.87154 4.57542 10.6829 4.57542C11.4943 4.57542 12.1349 5.23059 12.1349 6.03993C12.1349 6.84926 11.4943 7.50444 10.6829 7.50444Z" fill="#5865F2"/>
</svg>
