<svg xmlns="http://www.w3.org/2000/svg" width="256" height="256"><path fill-opacity=".016" d="M0 128.004v128.004l128.25-.254 128.25-.254.254-127.75L257.008 0H0v128.004m.485.496c0 70.4.119 99.053.265 63.672.146-35.38.146-92.98 0-128C.604 29.153.485 58.1.485 128.5" fill="#1976D2" fill-rule="evenodd"/><path fill-opacity=".159" d="M59.169 31.018c-6.23 1.303-42.413 20.651-48.21 25.779-2.828 2.502-6.029 6.681-7.659 10L.5 72.5v110.044l3.292 6.686c1.911 3.881 4.958 8.112 7.263 10.085 2.184 1.869 12.943 8.199 23.909 14.067 21.028 11.251 27.305 13.395 35.391 12.089 7.467-1.207 12.586-4.247 36.28-21.549l23.398-17.085 21.377 17.091c11.757 9.4 23.562 18.076 26.233 19.282 6.4 2.888 17.694 2.97 24.857.18 4.287-1.669 5.499-1.773 8.5-.725 5.41 1.889 9.145 1.566 14.871-1.288 5.577-2.779 9.632-7.669 10.69-12.893.426-2.105 2.046-3.973 5.5-6.343 5.571-3.823 10.197-10.235 12.695-17.596 1.514-4.462 1.747-11.15 2.012-57.875.165-29.056-.079-52.596-.543-52.309-.463.286-1.361-1.421-1.996-3.793-1.425-5.328-6.353-11.922-12.258-16.403-2.848-2.161-4.936-4.745-5.751-7.12-3.278-9.542-14.038-15.379-23.814-12.917-3.881.977-5.057.837-9.662-1.152-6.664-2.877-16.68-3.61-22.905-1.674-2.706.841-14.968 8.423-29.23 18.073C137.097 58.519 125.828 66 125.566 66c-.261 0-10.102-7.124-21.868-15.83-11.766-8.707-23.26-16.578-25.543-17.491-5.28-2.113-13.422-2.825-18.986-1.661m154.188 13.974c-5.851 2.361-7.144 10.375-2.434 15.085 3.727 3.726 7.833 3.841 12 .334C225.485 58.256 226 57.099 226 53.5c0-3.599-.515-4.756-3.077-6.911-3.164-2.663-5.825-3.107-9.566-1.597M60 56.26a7361.182 7361.182 0 0 1-19.256 10.142c-8.116 4.264-15.142 8.505-15.613 9.425-.472.92-1.133 23.948-1.471 51.173-.476 38.453-.336 50.052.629 51.972 1.675 3.333 6.338 6.29 25.211 15.988 14.867 7.64 16.212 8.141 19 7.076 3.174-1.213 41.54-29.82 41.444-30.902-.031-.349-8.535-7.384-18.898-15.634l-18.843-15-5.443-.142c-8.173-.214-14.188-4.211-18.146-12.058-3.67-7.277-.697-17.833 6.673-23.697 3.097-2.464 4.935-3.086 10.083-3.414 10.871-.692 18.378 5.003 20.897 15.854l1.233 5.308 20.995 16.825c11.548 9.253 21.448 16.816 22 16.807.553-.01 7.98-5.181 16.505-11.491 16.09-11.91 18.263-14.424 16.262-18.816-1.429-3.136-92.104-70.498-95.902-71.245-1.943-.382-4.302.204-7.36 1.829m106.417 11.33c-10.954 7.474-20.012 13.681-20.127 13.793-.116.112 7.166 5.659 16.183 12.327 9.793 7.242 17.639 13.842 19.486 16.393 6.614 9.129 7.66 21.97 2.58 31.651-3.598 6.856-4.701 7.919-20.471 19.73-7.857 5.884-13.899 11.047-13.427 11.473.473.426 8.861 7.135 18.64 14.909 12.242 9.731 18.566 14.134 20.3 14.134 3.268 0 8.419-2.677 8.419-4.376 0-.728 1.381-3.231 3.069-5.561 4.137-5.711 10.02-8.272 18.218-7.931 6.582.274 9.994-.919 11.69-4.089.658-1.23 1.023-19.789 1.023-52.054V77.846l-3.022-3.022c-1.663-1.663-3.654-2.778-4.429-2.481-9.982 3.83-21.321-1.051-25.762-11.091-1.969-4.453-5.857-7.252-10.07-7.252-1.416 0-10.462 5.513-22.3 13.59M.465 126.5c0 28.6.128 40.156.284 25.68.157-14.476.157-37.876 0-52C.593 86.056.465 97.9.465 126.5m61.285-14.42c-2.752 1.603-4.956 6.707-4.262 9.867 1.618 7.365 11.385 10.228 16.118 4.725 5.427-6.31 1.637-15.705-6.311-15.642-2.087.017-4.583.489-5.545 1.05m151.607 82.874c-5.717 2.408-7.218 10.912-2.721 15.41 2.851 2.85 7.837 3.524 11.514 1.556 2.625-1.405 4.806-6.699 4.158-10.091-1.016-5.313-7.938-8.987-12.951-6.875" fill="#1976D2" fill-rule="evenodd"/><path fill-opacity=".251" d="M181.099 31.137c-2.999.709-12.564 6.549-30.025 18.332L125.45 66.761l-21.431-15.886C80.758 33.633 75.718 31 65.973 31c-7.686 0-11.648 1.585-33.473 13.393C14.019 54.392 8.254 58.742 4.915 65.21 2.925 69.067 2.308 71.617 4 69c.801-1.24.972-1.149.985.523C5.003 71.92 20.95 88.201 21.1 85.977c.055-.813.46-.352.9 1.023.632 1.973.822 1.403.9-2.703.111-5.796 1.396-9.376 3.933-10.961.93-.581 9.437-5.169 18.903-10.196C57.389 56.952 64.012 54 66.243 54c2.762 0 10.732 5.509 49.276 34.059 25.29 18.733 46.544 34.794 47.231 35.691 2.198 2.87 1.51 7.638-1.5 10.392-2.441 2.233-26.853 20.318-29.968 22.201-.76.458-9.515-5.908-23.25-16.908C88.332 123.659 86 121.482 86 118.856c0-1.614-.88-4.661-1.956-6.77-4.991-9.784-16.463-13.541-26.111-8.551-3.174 1.641-8.933 8.005-8.933 9.871 0 .735 1.782 3.307 3.959 5.715l3.959 4.379.041-3.316c.054-4.388 1.473-6.839 5.021-8.674 4.656-2.407 7.84-1.89 11.62 1.89 4.038 4.038 4.556 8.861 1.384 12.893-2.233 2.839-8.239 5.258-10.214 4.114-.699-.405 1.402 1.926 4.669 5.179 3.266 3.252 6.266 5.914 6.666 5.914.401 0 1.103.41 1.562.91.496.543.227.566-.667.058-1.306-.742-1.317-.627-.09.886.776.955 1.98 1.518 2.677 1.251.697-.267 1.862.275 2.59 1.204 1.204 1.538 1.142 1.567-.677.316-1.1-.756-.73-.187.822 1.265 1.553 1.451 3.31 2.338 3.905 1.97.595-.368.801-.215.458.34-.553.895 18.693 17.147 23.515 19.857 1.674.94.994 1.744-6.17 7.297-6.562 5.087-7.881 6.555-7.137 7.943C98.07 186.993 110.562 199 111.67 199c.464 0 4.858-2.867 9.765-6.371l8.922-6.371 21.072 16.891c11.589 9.29 23.049 17.853 25.466 19.03 6.106 2.973 17.13 3.587 23.105 1.288 4.828-1.857 6.2-1.938 15.59-.914 4.762.519 6.833.288 9.5-1.061 6.309-3.193 10.91-8.822 10.91-13.349 0-1.195 1.9-3.32 4.885-5.465 5.705-4.099 9.251-8.47 12.108-14.928 1.978-4.474 2.06-6.61 2.28-59.445L255.5 73.5l-2.601-5.546c-3.143-6.7-7.566-11.921-12.226-14.431-2.46-1.325-3.785-2.954-4.592-5.647-3.104-10.361-15.573-16.681-25.479-12.915-1.98.753-3.695.428-7.901-1.498-6.215-2.845-15.276-3.82-21.602-2.326m30.461 14.994C204.018 52.064 207.702 63 217.242 63c4.133 0 7.112-2.026 8.733-5.941 3.656-8.825-6.908-16.833-14.415-10.928m-44.982 20.884c-10.407 7.111-19.338 13.345-19.847 13.854-.566.566 5.217 5.455 14.922 12.613 8.716 6.428 16.899 12.887 18.184 14.353 9.244 10.541 9.718 27.15 1.12 39.226-1.142 1.603-8.8 7.911-17.017 14.017l-14.941 11.101 18.073 14.488c9.941 7.968 19.363 14.937 20.939 15.487 4.2 1.464 9.552-1.3 10.997-5.679 1.471-4.457 7.888-10.101 13.071-11.496 2.345-.632 6.291-.841 8.952-.475 4.286.59 5.073.373 7.908-2.175 3.831-3.442 3.548 1.582 3.276-58.124L232 76.909l-2.386-2.386c-2.209-2.209-2.936-2.344-9.788-1.826-10.969.829-16.579-2.362-20.757-11.809-1.202-2.716-3.044-5.011-4.586-5.714-5.816-2.65-8.14-1.664-27.905 11.841m44.789 128.757c-5.106 4.136-5.675 9.732-1.469 14.439 2.398 2.684 3.622 3.244 7.102 3.244 3.48 0 4.704-.56 7.102-3.244 3.967-4.439 3.958-9.305-.025-13.288-3.434-3.434-9.242-3.96-12.71-1.151" fill="#1976D2" fill-rule="evenodd"/><path fill-opacity=".342" d="M178.657 32.458c-2.114.754-15.003 8.895-28.641 18.091L125.219 67.27l9.64 7.179 9.641 7.179 21.218-14.314C177.388 59.441 187.64 53 188.5 53c4.236 0 8.574 3.005 10.402 7.206 4.25 9.767 15.58 15.222 24.541 11.816 2.183-.83 3.066-.539 5.815 1.917l3.242 2.896.365 46.332c.201 25.483.718 45.208 1.15 43.833.762-2.425.789-2.409.885.56.081 2.471 1.809 4.736 8.978 11.765l8.877 8.705 1.123-4.458c.758-3.014 1.122-21.421 1.122-56.837 0-45.281-.216-53.012-1.592-57.051-1.77-5.195-8.648-13.433-13.952-16.711-1.901-1.175-3.456-2.792-3.456-3.594 0-3.09-4.206-9.487-7.803-11.867-4.533-3-11.703-4.159-16.322-2.638-2.89.951-4.237.756-9.375-1.358-6.931-2.851-17.498-3.32-23.843-1.058m35.555 11.744c-3.692.982-7.202 5.768-7.208 9.825-.008 5.41 6.538 10.357 12.257 9.263 1.519-.29 3.881-1.858 5.25-3.485 6.335-7.529-.684-18.162-10.299-15.603M152 87.477c0 .237 2.01 1.967 4.468 3.843 2.457 1.876 4.266 3.613 4.019 3.86-.247.246 5.449 6.269 12.657 13.384 8.833 8.719 12.86 12.121 12.354 10.436-1.407-4.682-3.567-8.076-4.695-7.378-.688.425-.83.23-.371-.511.924-1.497-1.287-4.319-2.7-3.445-.572.353-.751.174-.398-.398.8-1.293-1.889-3.661-3.221-2.838-.536.332-1.3.076-1.698-.568-.452-.731-.291-.903.43-.457.635.392 1.155.511 1.155.264 0-.246-4.95-4.088-11-8.536-6.05-4.447-11-7.893-11-7.656m12.359 10.295c.791 1.28 6.641 5.609 6.641 4.915 0-.247-1.652-1.71-3.671-3.25s-3.356-2.289-2.97-1.665M182.08 115c1.458 3.061 1.92 3.628 1.92 2.358 0-.537-.7-1.849-1.555-2.917-1.467-1.83-1.487-1.798-.365.559m-46.462 38.771c-3.905 2.892-4.573 3.797-3.439 4.659.774.589 4.588 3.658 8.475 6.82 3.887 3.162 7.692 5.734 8.457 5.714.764-.02 2.704-1.111 4.312-2.426l2.924-2.39-7.941-7.983-7.941-7.984-4.847 3.59M110 172.773c0 .426 3.504 4.258 7.788 8.516 7.219 7.177 7.93 7.637 9.748 6.308 1.079-.788 1.737-1.619 1.462-1.845C121.14 179.26 111.585 172 110.9 172c-.495 0-.9.348-.9.773" fill="#1976D2" fill-rule="evenodd"/></svg>