<?xml version="1.0" encoding="utf-8"?>
<!-- Generator: Adobe Illustrator 26.1.0, SVG Export Plug-In . SVG Version: 6.00 Build 0)  -->
<svg version="1.1" id="Слой_1" xmlns="http://www.w3.org/2000/svg" xmlns:xlink="http://www.w3.org/1999/xlink" x="0px" y="0px"
	 viewBox="0 0 202 155" style="enable-background:new 0 0 202 155;" xml:space="preserve">
<style type="text/css">
	.st0{fill:url(#SVGID_1_);}
	.st1{fill:url(#SVGID_00000050648845864590328210000008560743732093387174_);}
	.st2{fill:url(#SVGID_00000152253442941865990480000009927305790257081491_);}
	.st3{fill:url(#SVGID_00000111887935708209598960000011280292599494905000_);}
</style>
<g>
	<g>
		<linearGradient id="SVGID_1_" gradientUnits="userSpaceOnUse" x1="28.0936" y1="152.1343" x2="176.7159" y2="3.5121">
			<stop  offset="0" style="stop-color:#86F5FF"/>
			<stop  offset="1" style="stop-color:#D700FC"/>
		</linearGradient>
		<path class="st0" d="M187.25,18.19l-1.24-0.66c-0.87-7.67-7.37-13.64-15.28-13.64c-2.57,0-4.99,0.64-7.12,1.75l-2.79-1.48
			c-8.36-4.44-18.42-3.89-26.24,1.43L99.17,29.67L67.77,6.4C59.93,0.59,49.3-0.2,40.69,4.37L14.66,18.19
			C6.33,22.62,1.15,31.23,1.15,40.67v73.97c0,9.44,5.18,18.05,13.51,22.47l26.03,13.82c3.72,1.98,7.82,2.96,11.91,2.96
			c5.37,0,10.72-1.69,15.17-4.99l34.79-25.78l31.21,25c4.61,3.69,10.24,5.59,15.9,5.59c4.08,0,8.18-0.99,11.94-2.98l1.38-0.73
			c2.27,1.33,4.91,2.1,7.74,2.1c1.3,0,2.58-0.16,3.79-0.48c6.34-1.6,11.12-7.14,11.55-13.88l1.18-0.63
			c8.33-4.42,13.51-13.03,13.51-22.47V40.66C200.76,31.23,195.58,22.62,187.25,18.19z M170.73,11.58c4.25,0,7.69,3.45,7.69,7.7
			c0,0.16-0.01,0.33-0.02,0.49c-0.21,3.38-2.6,6.16-5.78,6.96c-0.6,0.16-1.24,0.24-1.89,0.24c-4.25,0-7.7-3.44-7.7-7.69
			S166.48,11.58,170.73,11.58z M68.54,72.7c0.02-0.32,0.03-0.65,0.03-0.98c0-8.5-6.88-15.39-15.38-15.39s-15.38,6.89-15.38,15.39
			c0,8.49,6.88,15.38,15.38,15.38c1.31,0,2.58-0.16,3.79-0.47l30.97,24.8L57,134.37c-2.27,1.68-5.34,1.91-7.83,0.58l-26.02-13.82
			c-2.41-1.27-3.91-3.76-3.91-6.49V40.67c0-2.73,1.5-5.22,3.91-6.5l26.02-13.82c1.08-0.57,2.26-0.85,3.44-0.85
			c1.56,0,3.1,0.49,4.39,1.44l70.04,51.91c0.77,0.57,1.38,1.29,1.79,2.11c0.41,0.82,0.63,1.73,0.63,2.69c0,1.92-0.88,3.67-2.42,4.81
			l-24.05,17.83L68.54,72.7z M60.95,71.36c0,0.17,0,0.33-0.02,0.49c-0.2,3.38-2.6,6.16-5.77,6.96c-0.61,0.16-1.24,0.24-1.9,0.24
			c-4.25,0-7.69-3.44-7.69-7.69s3.44-7.69,7.69-7.69S60.95,67.11,60.95,71.36z M178.4,137.21c-0.21,3.38-2.6,6.16-5.78,6.96
			c-0.6,0.16-1.24,0.24-1.89,0.24c-4.25,0-7.7-3.45-7.7-7.7c0-4.24,3.45-7.69,7.7-7.69s7.69,3.45,7.69,7.69
			C178.42,136.88,178.41,137.05,178.4,137.21z M182.67,114.64c0,2.73-1.5,5.22-3.91,6.49l-2.4,1.28c-1.74-0.69-3.64-1.08-5.63-1.08
			c-7.35,0-13.49,5.15-15.01,12.04l-2.6,1.38c-2.59,1.38-5.75,1.08-8.04-0.76l-27.49-22.01L137.81,97
			c6.19-4.59,9.74-11.64,9.74-19.35c0-7.7-3.55-14.75-9.74-19.34l-23.24-17.23l30.18-20.53c2.26-1.54,5.17-1.7,7.58-0.41l3.25,1.72
			c1.23,7.26,7.53,12.8,15.15,12.8c1.3,0,2.58-0.16,3.79-0.47c0.89-0.23,1.74-0.54,2.56-0.91l1.68,0.89
			c2.41,1.28,3.91,3.77,3.91,6.49V114.64z"/>
	</g>
	
		<linearGradient id="SVGID_00000007394093500130617940000013956261931955129784_" gradientUnits="userSpaceOnUse" x1="107.2146" y1="37.6798" x2="123.1738" y2="21.7206">
		<stop  offset="0" style="stop-color:#272425;stop-opacity:0.5"/>
		<stop  offset="0.1279" style="stop-color:#272425;stop-opacity:0.436"/>
		<stop  offset="1" style="stop-color:#272425;stop-opacity:0"/>
	</linearGradient>
	<polygon style="fill:url(#SVGID_00000007394093500130617940000013956261931955129784_);" points="99.18,29.65 114.58,41.06 
		131.2,29.75 116.21,18.07 	"/>
	
		<linearGradient id="SVGID_00000158717804217013518630000009350620974693086909_" gradientUnits="userSpaceOnUse" x1="110.5494" y1="107.8145" x2="125.1298" y2="93.234">
		<stop  offset="0" style="stop-color:#272425;stop-opacity:0.5"/>
		<stop  offset="0.1279" style="stop-color:#272425;stop-opacity:0.436"/>
		<stop  offset="1" style="stop-color:#272425;stop-opacity:0"/>
	</linearGradient>
	<polygon style="fill:url(#SVGID_00000158717804217013518630000009350620974693086909_);" points="103,100.26 117.6,111.96 
		132.68,100.79 118.32,88.91 	"/>
	
		<linearGradient id="SVGID_00000102541752025542957200000015090815715943369107_" gradientUnits="userSpaceOnUse" x1="80.5126" y1="130.0655" x2="95.024" y2="115.5542">
		<stop  offset="0" style="stop-color:#272425;stop-opacity:0"/>
		<stop  offset="0.9258" style="stop-color:#272425;stop-opacity:0.4629"/>
		<stop  offset="1" style="stop-color:#272425;stop-opacity:0.5"/>
	</linearGradient>
	<polygon style="fill:url(#SVGID_00000102541752025542957200000015090815715943369107_);" points="87.96,111.4 102.57,123.1 
		88.36,133.63 72.97,122.52 	"/>
</g>
</svg>
